<?xml version="1.0" encoding="utf-8"?>
<!-- Generator: Adobe Illustrator 22.0.0, SVG Export Plug-In . SVG Version: 6.00 Build 0)  -->
<svg version="1.1" id="Layer_1" xmlns="http://www.w3.org/2000/svg" xmlns:xlink="http://www.w3.org/1999/xlink" x="0px" y="0px"
	 viewBox="0 0 545 545" style="enable-background:new 0 0 545 545;" xml:space="preserve">
<style type="text/css">
	.st0{fill:#FFE047;}
</style>
<path class="st0" d="M227.2,316.2c0,23.1-16.7,30.4-37.3,30.4H136v-63.2h55C213.2,283.5,227.2,292.7,227.2,316.2z M218,217.9
	c0-21.2-16.4-26.2-34.5-26.2h-47.3v53.6h51C205.2,245.2,218,237.3,218,217.9z M376.1,245.6c-21.9,0-36.5,13.6-37.9,35.5h74.3
	C410.5,259,399.1,245.6,376.1,245.6L376.1,245.6z M539.8,61.6v420.8c0,31.7-25.7,57.4-57.4,57.4H61.6c-31.7,0-57.4-25.7-57.4-57.4
	V61.6c0-31.7,25.7-57.4,57.4-57.4h420.8C514.1,4.2,539.8,29.9,539.8,61.6z M329,187.1h93v-22.6h-93L329,187.1L329,187.1z M277.6,319
	c0-28.8-13.6-53.7-41.8-61.7c20.6-9.8,31.3-21.2,31.3-44.2c0-45.7-34.1-56.8-73.4-56.8H85.5v229.5h111.3
	C238.5,385.6,277.6,365.6,277.6,319z M458.5,301.3c0-49.1-28.8-90.1-80.8-90.1c-50.7,0-85,38-85,88c0,51.8,32.6,87.3,85,87.3
	c39.7,0,65.4-17.8,77.8-55.9h-40.3c-4.4,14.2-22.2,21.6-36.1,21.6c-26.8,0-40.8-15.7-40.8-42.2h119.8
	C458.2,307.1,458.5,304.2,458.5,301.3L458.5,301.3z"/>
</svg>
