<?xml version="1.0" encoding="utf-8"?>
<!-- Generator: Adobe Illustrator 22.0.0, SVG Export Plug-In . SVG Version: 6.00 Build 0)  -->
<svg version="1.1" id="Layer_1" xmlns="http://www.w3.org/2000/svg" xmlns:xlink="http://www.w3.org/1999/xlink" x="0px" y="0px"
	 viewBox="0 0 543 541.8" style="enable-background:new 0 0 543 541.8;" xml:space="preserve">
<style type="text/css">
	.st0{fill:#FFFFFF;}
</style>
<path class="st0" d="M538.8,61.4v420.8c0,31.7-25.7,57.4-57.4,57.4h-102V327.7h72.4l10.4-80.8h-82.8v-51.6c0-23.4,6.5-39.3,40-39.3
	h42.8V83.7c-7.4-1-32.8-3.2-62.4-3.2c-61.7,0-104,37.7-104,106.9V247h-72.7v80.8H296v211.7H60.6c-31.7,0-57.4-25.7-57.4-57.4V61.4
	C3.2,29.7,28.9,4,60.6,4h420.8C513.1,4,538.8,29.7,538.8,61.4z"/>
</svg>
