<?xml version="1.0" encoding="utf-8"?>
<!-- Generator: Adobe Illustrator 22.0.0, SVG Export Plug-In . SVG Version: 6.00 Build 0)  -->
<svg version="1.1" id="Layer_1" xmlns="http://www.w3.org/2000/svg" xmlns:xlink="http://www.w3.org/1999/xlink" x="0px" y="0px"
	 viewBox="0 0 537 541.7" style="enable-background:new 0 0 537 541.7;" xml:space="preserve">
<style type="text/css">
	.st0{fill:#FFE047;}
</style>
<path class="st0" d="M270.1,135.5c-76,0-137.3,61.3-137.3,137.3s61.3,137.3,137.3,137.3s137.3-61.3,137.3-137.3
	S346.1,135.5,270.1,135.5z M270.1,362.2c-49.1,0-89.3-40-89.3-89.3s40-89.3,89.3-89.3s89.3,40,89.3,89.3S319.2,362.2,270.1,362.2
	L270.1,362.2z M445.1,129.9c0,17.8-14.3,32-32,32c-17.8,0-32-14.3-32-32c0-17.7,14.3-32,32-32S445.1,112.2,445.1,129.9z
	 M536.1,162.4c-2-42.9-11.8-80.9-43.3-112.2C461.5,18.9,423.5,9.1,380.6,6.9c-44.2-2.5-176.8-2.5-221,0C116.8,9,78.7,18.8,47.3,50.1
	C15.9,81.4,6.2,119.4,4,162.3c-2.5,44.2-2.5,176.8,0,221c2,42.9,11.8,80.9,43.3,112.2c31.4,31.3,69.3,41.1,112.2,43.3
	c44.2,2.5,176.8,2.5,221,0c42.9-2,80.9-11.8,112.2-43.3c31.3-31.3,41.1-69.3,43.3-112.2C538.6,339.1,538.6,206.7,536.1,162.4z
	 M478.9,430.8c-9.3,23.4-27.4,41.5-50.9,50.9c-35.3,14-118.9,10.8-157.9,10.8s-122.8,3.1-157.9-10.8c-23.4-9.3-41.5-27.4-50.9-50.9
	c-14-35.3-10.8-118.9-10.8-157.9S47.4,150.1,61.3,115c9.3-23.4,27.4-41.5,50.9-50.9c35.3-14,118.9-10.8,157.9-10.8
	c39,0,122.8-3.1,157.9,10.8c23.4,9.3,41.5,27.4,50.9,50.9c14,35.3,10.8,118.9,10.8,157.9S492.9,395.6,478.9,430.8z"/>
</svg>
