<?xml version="1.0" encoding="utf-8"?>
<!-- Generator: Adobe Illustrator 22.0.0, SVG Export Plug-In . SVG Version: 6.00 Build 0)  -->
<svg version="1.1" id="Layer_1" xmlns="http://www.w3.org/2000/svg" xmlns:xlink="http://www.w3.org/1999/xlink" x="0px" y="0px"
	 viewBox="0 0 404.8 311.9" style="enable-background:new 0 0 404.8 311.9;" xml:space="preserve">
<style type="text/css">
	.st0{fill:#131927;}
	.st1{fill:#FFFFFF;}
	.st2{fill:#f8e066;}
</style>
<g>
	<path class="st0" d="M339.9,240.1H85.2L212.5,19.5L339.9,240.1z M92.1,236.1H333L212.5,27.5L92.1,236.1z"/>
</g>
<g>
	<polygon class="st2" points="212.9,265.8 206.3,265.8 152,198.4 258.3,209.7 	"/>
</g>
<g>
	<rect x="135.3" y="76.5" class="st2" width="151.7" height="71.7"/>
</g>
<g>
	<g>
		<polygon class="st0" points="92,123.9 206.3,265.8 161.1,123.9 		"/>
	</g>
	<g>
		<polygon class="st0" points="250.9,123.9 327.9,123.9 212.9,265.8 		"/>
	</g>
	<g>
		<polygon class="st0" points="167,123.9 245,123.9 209.9,265.8 		"/>
	</g>
	<g>
		<polygon class="st0" points="92,116.1 156.6,116.1 121.2,74.1 		"/>
	</g>
	<g>
		<polygon class="st0" points="127.7,71.4 206.3,71.4 167,116.1 		"/>
	</g>
	<g>
		<polygon class="st0" points="171,116.1 245,116.1 212.9,71.4 		"/>
	</g>
	<g>
		<polygon class="st0" points="218.8,71.4 292.2,71.4 250.9,116.1 		"/>
	</g>
	<g>
		<polygon class="st0" points="255.5,116.1 298.7,74.1 327.9,116.1 		"/>
	</g>
</g>
<g>
	<line class="st0" x1="84.3" y1="238.1" x2="152" y2="194.3"/>
</g>
<g>
	<line class="st0" x1="268.5" y1="190.7" x2="337.2" y2="238.1"/>
</g>
<g>
	<g>
		<path class="st1" d="M176.1,212.8v-22.1h3.5c1.7,0,3,0.2,4,0.7c1.1,0.4,2,1.2,2.9,2.2c1.7,2.1,2.6,4.8,2.6,8.2
			c0,3.4-0.9,6.2-2.7,8.3c-0.9,1.1-1.9,1.8-2.9,2.2c-0.9,0.4-2.3,0.6-4,0.6h-3.4V212.8z M178.6,209.7h1.1c1.1,0,2.1-0.2,2.9-0.5
			c0.8-0.3,1.4-0.9,2.1-1.6c1.3-1.5,1.9-3.5,1.9-5.9s-0.6-4.4-1.9-5.9c-1.1-1.3-2.8-2-4.9-2h-1.1v15.9H178.6z"/>
	</g>
	<g>
		<path class="st1" d="M201.6,193.8h-6.8v5.3h6.6v3.1h-6.6v7.4h6.8v3.1h-9.3v-22.1h9.3V193.8z"/>
	</g>
	<g>
		<path class="st1" d="M207.5,190.7v19h5v3.1H205v-22.1H207.5z"/>
	</g>
	<g>
		<path class="st1" d="M223.3,193.8h-5.9v5.3h5.7v3.1h-5.7v10.5h-2.5v-22.1h8.4V193.8z"/>
	</g>
	<g>
		<path class="st1" d="M235.1,207.5h-7.2l-1.9,5.4h-2.7l8.4-23.5l8.1,23.5h-2.8L235.1,207.5z M234.1,204.3l-2.5-7.5l-2.6,7.5H234.1z
			"/>
	</g>
</g>
<g>
	<line class="st0" x1="212.9" y1="25" x2="212.9" y2="71.4"/>
</g>
</svg>
