<?xml version="1.0" encoding="utf-8"?>
<!-- Generator: Adobe Illustrator 22.0.0, SVG Export Plug-In . SVG Version: 6.00 Build 0)  -->
<svg version="1.1" id="Layer_1" xmlns="http://www.w3.org/2000/svg" xmlns:xlink="http://www.w3.org/1999/xlink" x="0px" y="0px"
	 viewBox="0 0 404.8 311.9" style="enable-background:new 0 0 404.8 311.9;" xml:space="preserve">
<style type="text/css">
	.st0{fill:rgba(0,0,0,0);}
	.st1{fill:#000000;}
	.st2{fill:#000000;}
	.st3{fill:#000000;stroke:#000000;stroke-miterlimit:10;}
</style>
<rect x="-1" class="st0" width="405.8" height="310.9"/>
<g>
	<polygon class="st1" points="92,123.9 206.3,265.8 161.1,123.9 	"/>
	<polygon class="st1" points="250.9,123.9 327.9,123.9 212.9,265.8 	"/>
	<polygon class="st1" points="167,123.9 245,123.9 209.9,265.8 	"/>
	<polygon class="st1" points="92,116.1 156.6,116.1 121.2,74.1 	"/>
	<polygon class="st1" points="127.7,71.4 206.3,71.4 167,116.1 	"/>
	<polygon class="st1" points="171,116.1 245,116.1 212.9,71.4 	"/>
	<polygon class="st1" points="218.8,71.4 292.2,71.4 250.9,116.1 	"/>
	<polygon class="st1" points="255.5,116.1 298.7,74.1 327.9,116.1 	"/>
</g>
<g>
	<line class="st1" x1="81.6" y1="239.2" x2="182.9" y2="239.2"/>
	<g>
		<path class="st2" d="M81.4,240.2c33.8,0,67.5,0,101.3,0c1.6,0,2.2-2,0.3-2c-33.8,0-67.5,0-101.3,0
			C80.1,238.2,79.5,240.2,81.4,240.2L81.4,240.2z"/>
	</g>
</g>
<g>
	<line class="st1" x1="236.1" y1="239.2" x2="337.4" y2="239.2"/>
	<g>
		<path class="st2" d="M235.1,239.7c33.8,0,67.5,0,101.3,0c0.6,0,3.3-1.1,1.9-1.1c-33.8,0-67.5,0-101.3,0
			C236.5,238.6,233.7,239.7,235.1,239.7L235.1,239.7z"/>
	</g>
</g>
<g>
	<line class="st1" x1="81.6" y1="239.2" x2="132.2" y2="157.4"/>
	<g>
		<path class="st2" d="M82.9,239.2c16.9-27.3,33.8-54.5,50.7-81.8c0.7-1.1-2.2-0.7-2.7,0c-16.9,27.3-33.8,54.5-50.7,81.8
			C79.6,240.3,82.5,239.9,82.9,239.2L82.9,239.2z"/>
	</g>
</g>
<g>
	<line class="st1" x1="291.7" y1="157.8" x2="337.4" y2="237.3"/>
	<g>
		<path class="st2" d="M290.2,158.2c15.2,26.5,30.5,53,45.7,79.5c0.4,0.7,3.1-0.4,2.9-0.8c-15.2-26.5-30.5-53-45.7-79.5
			C292.7,156.7,290,157.8,290.2,158.2L290.2,158.2z"/>
	</g>
</g>
<g>
	<line class="st1" x1="180.7" y1="79.1" x2="211.4" y2="24.4"/>
	<g>
		<path class="st2" d="M182.1,79.2c10.2-18.2,20.5-36.4,30.7-54.6c0.8-1.4-2.1-1.5-2.8-0.3c-10.2,18.2-20.5,36.4-30.7,54.6
			C178.5,80.3,181.5,80.4,182.1,79.2L182.1,79.2z"/>
	</g>
</g>
<g>
	<line class="st1" x1="246.5" y1="83.6" x2="211.4" y2="24.4"/>
	<g>
		<path class="st2" d="M247.9,83c-11.7-19.7-23.4-39.4-35.1-59.1c-0.5-0.8-3.3,0.1-2.7,1.1c11.7,19.7,23.4,39.4,35.1,59.1
			C245.7,84.9,248.5,84,247.9,83L247.9,83z"/>
	</g>
</g>
<line class="st3" x1="81.6" y1="239.2" x2="152.7" y2="201.2"/>
<line class="st3" x1="273" y1="193.5" x2="334.9" y2="238.5"/>
<line class="st3" x1="211.6" y1="24.7" x2="214.2" y2="78.5"/>
<g>
	<path class="st1" d="M134.3,299.6v-22.1h3.5c1.7,0,3,0.2,4,0.7c1.1,0.4,2,1.2,2.9,2.2c1.7,2.1,2.6,4.8,2.6,8.2
		c0,3.4-0.9,6.2-2.7,8.3c-0.9,1.1-1.9,1.8-2.9,2.2c-0.9,0.4-2.3,0.6-4,0.6H134.3z M136.8,296.5h1.1c1.1,0,2.1-0.2,2.9-0.5
		c0.8-0.3,1.4-0.9,2.1-1.6c1.3-1.5,1.9-3.5,1.9-5.9c0-2.4-0.6-4.4-1.9-5.9c-1.1-1.3-2.8-2-4.9-2h-1.1V296.5z"/>
	<path class="st1" d="M159.8,280.6h-6.8v5.3h6.6v3.1h-6.6v7.4h6.8v3.1h-9.3v-22.1h9.3V280.6z"/>
	<path class="st1" d="M165.7,277.5v19h5v3.1h-7.5v-22.1H165.7z"/>
	<path class="st1" d="M181.5,280.6h-5.9v5.3h5.7v3.1h-5.7v10.5h-2.5v-22.1h8.4V280.6z"/>
	<path class="st1" d="M193.3,294.3h-7.2l-1.9,5.4h-2.7l8.4-23.5l8.1,23.5h-2.8L193.3,294.3z M192.3,291.1l-2.5-7.5l-2.6,7.5H192.3z"
		/>
	<path class="st1" d="M209.4,290.6v9h-2.5v-22.1h2.9c1.4,0,2.5,0.1,3.2,0.4c0.7,0.3,1.4,0.7,1.9,1.5c1,1.2,1.5,2.8,1.5,4.7
		c0,2-0.5,3.6-1.6,4.8s-2.4,1.8-4.2,1.8H209.4z M209.4,287.6h1c2.3,0,3.5-1.2,3.5-3.5c0-2.3-1.2-3.4-3.6-3.4h-0.8V287.6z"/>
	<path class="st1" d="M224.7,290.2l5.2,9.4h-3.1l-4.8-9.1h-0.5v9.1H219v-22.1h3c2.2,0,3.8,0.5,4.8,1.6c1.1,1.2,1.6,2.8,1.6,4.8
		c0,1.6-0.3,2.9-1,4S225.8,289.9,224.7,290.2z M221.5,287.7h0.8c2.4,0,3.6-1.2,3.6-3.6c0-2.3-1.2-3.4-3.5-3.4h-0.9V287.7z"/>
	<path class="st1" d="M235,277.5v22.1h-2.5v-22.1H235z"/>
	<path class="st1" d="M248.4,280.6h-6.8v5.3h6.6v3.1h-6.6v7.4h6.8v3.1H239v-22.1h9.3V280.6z"/>
	<path class="st1" d="M260.4,288.1h7v0.7c0,1.7-0.1,3.1-0.4,4.4c-0.3,1.2-0.8,2.3-1.5,3.3c-1.6,2.3-3.6,3.5-6,3.5
		c-2.4,0-4.4-1.1-6.1-3.4c-1.7-2.2-2.5-4.9-2.5-8.1c0-3.2,0.9-5.9,2.6-8.2c1.7-2.2,3.8-3.4,6.3-3.4c1.3,0,2.6,0.4,3.7,1.1
		c1.1,0.7,2.2,1.9,3.2,3.4l-1.8,2.3c-1.4-2.4-3.1-3.6-5.1-3.6c-1.8,0-3.3,0.8-4.5,2.4c-1.2,1.6-1.8,3.6-1.8,6c0,2.5,0.7,4.5,2,6.1
		c1.3,1.5,2.6,2.2,4.1,2.2c1.3,0,2.4-0.6,3.4-1.7c1-1.1,1.6-2.5,1.7-4h-4.2V288.1z"/>
	<path class="st1" d="M269.7,288.5c0-3.1,0.9-5.8,2.6-8c1.7-2.2,3.8-3.4,6.3-3.4c2.4,0,4.5,1.1,6.2,3.4c1.7,2.3,2.6,5,2.6,8.1
		c0,3.2-0.9,5.9-2.6,8.1c-1.7,2.2-3.8,3.3-6.3,3.3c-2.2,0-4.1-1-5.9-3C270.7,294.9,269.7,292,269.7,288.5z M272.3,288.5
		c0,2.4,0.6,4.5,1.9,6c1.2,1.6,2.7,2.4,4.3,2.4c1.8,0,3.3-0.8,4.5-2.4c1.2-1.6,1.8-3.6,1.8-5.9c0-2.4-0.6-4.3-1.8-5.9
		c-1.2-1.6-2.7-2.4-4.4-2.4c-1.8,0-3.2,0.8-4.4,2.4C272.9,284.2,272.3,286.2,272.3,288.5z"/>
</g>
</svg>
