<?xml version="1.0" encoding="utf-8"?>
<!-- Generator: Adobe Illustrator 22.0.0, SVG Export Plug-In . SVG Version: 6.00 Build 0)  -->
<svg version="1.1" id="Layer_1" xmlns="http://www.w3.org/2000/svg" xmlns:xlink="http://www.w3.org/1999/xlink" x="0px" y="0px"
	 viewBox="0 0 70.9 69.8" style="enable-background:new 0 0 70.9 69.8;" xml:space="preserve">
<style type="text/css">
	.st0{fill:#8C8C8C;}
</style>
<title>menu</title>
<path class="st0" d="M35.3,0.3C16.1,0.3,0.5,15.9,0.5,35c0,19.2,15.5,34.7,34.7,34.7S70,54.2,70,35C70,15.9,54.4,0.3,35.3,0.3z
	 M16.7,20.2h38c1.1,0,2,0.9,2,2s-0.9,2-2,2h-38c-1.1,0-2-0.9-2-2S15.6,20.2,16.7,20.2z M54.7,52.2h-38c-1.1,0-2-0.9-2-2s0.9-2,2-2
	h38c1.1,0,2,0.9,2,2S55.8,52.2,54.7,52.2z M55.5,38.2H16.7c-1.1,0-2-0.9-2-2c0-1.1,0.9-2,2-2h38.8c1.1,0,2,0.9,2,2
	C57.5,37.3,56.6,38.2,55.5,38.2z"/>
</svg>
