<svg width="40px" height="40px" viewBox="0 0 19 19" version="1.1" xmlns="http://www.w3.org/2000/svg" xmlns:xlink="http://www.w3.org/1999/xlink"><title>Borrar busqueda</title><desc>Created with Sketch.</desc><defs></defs><g id="Page-1" stroke="none" stroke-width="1" fill="none" fill-rule="evenodd"><g id="Mobile-Copy-2" transform="translate(-284.000000, -38.000000)" fill="#FFFF00"><path d="M301.88712,40.1898545 C302.274475,39.8025001 302.274741,39.1747409 301.880997,38.7809974 L301.395977,38.2959772 C301.005241,37.9052413 300.371601,37.9053739 299.98712,38.2898545 L293.088487,45.1884873 L286.189854,38.2898545 C285.8025,37.9025001 285.174741,37.9022337 284.780997,38.2959772 L284.295977,38.7809974 C283.905241,39.1717333 283.905374,39.8053739 284.289854,40.1898545 L291.188487,47.0884873 L284.289854,53.9871201 C283.9025,54.3744745 283.902234,55.0022337 284.295977,55.3959772 L284.780997,55.8809974 C285.171733,56.2717333 285.805374,56.2716007 286.189854,55.8871201 L293.088487,48.9884873 L299.98712,55.8871201 C300.374475,56.2744745 301.002234,56.2747409 301.395977,55.8809974 L301.880997,55.3959772 C302.271733,55.0052413 302.271601,54.3716007 301.88712,53.9871201 L294.988487,47.0884873 L301.88712,40.1898545 Z" id="Shape-Copy-7"></path></g></g></svg>